<?xml version="1.0" encoding="UTF-8" standalone="no"?>
<svg id="svg3035" xmlns:rdf="http://www.w3.org/1999/02/22-rdf-syntax-ns#" xmlns="http://www.w3.org/2000/svg" height="36" width="173" version="1.1" xmlns:cc="http://creativecommons.org/ns#" xmlns:dc="http://purl.org/dc/elements/1.1/">
 <g id="layer1" transform="translate(0,-28)">
  <g id="text3939" fill="#fff" transform="scale(.99586 1.0042)">
   <path id="path2986" d="m1.8923 30.532h5.852v25.163h8.5271v5.5803h-14.379v-30.744"/>
   <path id="path2988" d="m17.322 38.536h5.7684v10.952c-0.000009 2.1318 0.14629 3.6157 0.4389 4.4517 0.29259 0.82207 0.75935 1.463 1.4003 1.9228 0.65485 0.4598 1.456 0.6897 2.4035 0.6897 0.94745 0.000004 1.7486-0.22293 2.4035-0.6688 0.66878-0.45979 1.1634-1.1286 1.4839-2.0064 0.23685-0.65486 0.35528-2.0551 0.3553-4.2009v-11.14h5.7266v9.6348c-0.000023 3.971-0.31352 6.688-0.94049 8.1509-0.76635 1.7835-1.8949 3.1559-3.3858 4.1173-1.4909 0.94746-3.3858 1.4212-5.6848 1.4212-2.4941-0.000001-4.5144-0.55733-6.061-1.672-1.5327-1.1147-2.6125-2.6682-3.2395-4.6607-0.44587-1.3794-0.6688-3.8874-0.6688-7.524v-9.4676"/>
   <path id="path2990" d="m56.944 38.536h5.6848v22.739h-5.6848v-2.4035c-1.1147 1.0589-2.2363 1.8253-3.3649 2.299-1.1147 0.4598-2.3269 0.6897-3.6366 0.6897-2.9399-0.000001-5.4827-1.1356-7.6285-3.4067-2.1457-2.285-3.2186-5.1205-3.2186-8.5062-0.000002-3.5112 1.038-6.3884 3.1141-8.6316 2.076-2.2432 4.598-3.3649 7.5658-3.3649 1.3654 0.000024 2.6473 0.25779 3.8456 0.7733 1.1982 0.51555 2.3059 1.2888 3.3231 2.3199v-2.508m-5.9983 4.6816c-1.7695 0.000018-3.2395 0.62701-4.4099 1.881-1.1704 1.2401-1.7556 2.8354-1.7556 4.7861-0.000008 1.9646 0.59216 3.5809 1.7765 4.8488 1.1982 1.2679 2.6682 1.9019 4.4099 1.9019 1.7974 0.000005 3.2882-0.62002 4.4726-1.8601 1.1843-1.254 1.7765-2.8911 1.7765-4.9115-0.00002-1.9785-0.59218-3.5808-1.7765-4.807-1.1843-1.2261-2.6822-1.8392-4.4935-1.8392"/>
   <path id="path2992" d="m65.247 30.532h6.2073c3.3997 0.000031 5.8171 0.30656 7.2523 0.9196 1.449 0.59916 2.6125 1.6024 3.4903 3.0096 0.87777 1.4073 1.3167 3.0723 1.3167 4.9951-0.000023 2.0203-0.48769 3.7132-1.463 5.0787-0.96141 1.3515-2.4174 2.3756-4.3681 3.0723l7.2732 13.669h-6.3954l-6.9179-13.021h-0.5434v13.021h-5.852v-30.744m5.852 12.017h1.8392c1.867 0.000019 3.1489-0.24381 3.8456-0.7315 0.71058-0.48764 1.0659-1.2958 1.0659-2.4244-0.000016-0.66877-0.17418-1.247-0.5225-1.7347-0.34835-0.50157-0.81511-0.85687-1.4003-1.0659-0.58521-0.22291-1.6581-0.33437-3.2186-0.3344h-1.6093v6.2909"/>
   <path id="path2994" d="m95.2 37.951c2.1457 0.000024 4.1591 0.53645 6.0401 1.6093 1.8949 1.0729 3.3718 2.5289 4.4308 4.3681 1.0589 1.8392 1.5884 3.8247 1.5884 5.9565-0.00003 2.1457-0.53646 4.1521-1.6093 6.0192-1.059 1.8671-2.508 3.33-4.3472 4.389-1.8392 1.045-3.8665 1.5675-6.0819 1.5675-3.2604-0.000001-6.047-1.1565-8.3599-3.4694-2.299-2.3268-3.4485-5.1483-3.4485-8.4644-0.000001-3.553 1.3028-6.5138 3.9083-8.8824 2.285-2.0621 4.9115-3.0932 7.8792-3.0932m0.0836 5.3713c-1.7695 0.000018-3.2465 0.62005-4.4308 1.8601-1.1704 1.2261-1.7556 2.8006-1.7556 4.7234-0.000007 1.9785 0.57822 3.5809 1.7347 4.807 1.1704 1.2261 2.6473 1.8392 4.4308 1.8392 1.7834 0.000004 3.2673-0.62002 4.4517-1.8601 1.1843-1.2401 1.7765-2.8354 1.7765-4.7861-0.00001-1.9506-0.58521-3.5321-1.7556-4.7443-1.1565-1.2261-2.6404-1.8392-4.4517-1.8392"/>
   <path id="path2996" d="m131.98 43.134-4.7443 2.6125c-0.89175-0.93351-1.7765-1.5814-2.6543-1.9437-0.86388-0.36225-1.881-0.54338-3.0514-0.5434-2.1318 0.000018-3.8595 0.64095-5.1832 1.9228-1.3097 1.2679-1.9646 2.8981-1.9646 4.8906 0 1.9367 0.63396 3.5182 1.9019 4.7443s2.9329 1.8392 4.9951 1.8392c2.5498 0.000005 4.5352-0.87082 5.9565-2.6125l4.4935 3.0723c-2.4383 3.1628-5.8798 4.7443-10.325 4.7443-3.9988-0.000001-7.1338-1.1843-9.4049-3.553-2.2572-2.3686-3.3858-5.1414-3.3858-8.3181 0-2.2014 0.55036-4.2287 1.6511-6.0819 1.1007-1.8531 2.6334-3.3091 4.598-4.3681 1.9785-1.0589 4.1869-1.5884 6.6253-1.5884 2.2572 0.000024 4.2844 0.45285 6.0819 1.3585 1.7974 0.89175 3.2673 2.1666 4.4099 3.8247"/>
   <path id="path2998" d="m133.69 29.758h5.7057v18.162l8.4018-9.384h7.1478l-9.7811 10.91 10.972 11.829h-7.0851l-9.6557-10.471v10.471h-5.7057v-31.517"/>
   <path id="path3000" d="m171.41 41.713-3.5321 3.5321c-1.4351-1.4212-2.7379-2.1318-3.9083-2.1318-0.64094 0.000018-1.1425 0.13935-1.5048 0.418-0.36227 0.26475-0.5434 0.59915-0.5434 1.0032 0 0.30655 0.11146 0.59218 0.3344 0.85689 0.23686 0.25081 0.80812 0.59914 1.7138 1.045l2.09 1.045c2.2014 1.0868 3.7132 2.1945 4.5353 3.3231 0.82204 1.1286 1.2331 2.4523 1.2331 3.971-0.00002 2.0203-0.74544 3.7062-2.2363 5.0578-1.4769 1.3515-3.4624 2.0273-5.9565 2.0273-3.3161-0.000001-5.9634-1.2958-7.942-3.8874l3.5112-3.8247c0.66879 0.78027 1.449 1.4142 2.3408 1.9019 0.90565 0.47374 1.7068 0.7106 2.4035 0.7106 0.75239 0.000005 1.3585-0.18113 1.8183-0.5434 0.45979-0.36226 0.68968-0.78026 0.6897-1.254-0.00002-0.87779-0.82904-1.7347-2.4871-2.5707l-1.9228-0.96139c-3.6784-1.8531-5.5176-4.173-5.5176-6.9597 0-1.7974 0.68969-3.33 2.0691-4.598 1.3933-1.2818 3.1698-1.9228 5.3295-1.9228 1.4769 0.000024 2.8633 0.32746 4.1591 0.98229 1.3097 0.64095 2.4174 1.5675 3.3231 2.7797"/>
  </g>
 </g>
</svg>
