<?xml version="1.0" encoding="UTF-8" standalone="no"?>
<!-- Created with Inkscape (http://www.inkscape.org/) -->

<svg
   xmlns:dc="http://purl.org/dc/elements/1.1/"
   xmlns:cc="http://creativecommons.org/ns#"
   xmlns:rdf="http://www.w3.org/1999/02/22-rdf-syntax-ns#"
   xmlns:svg="http://www.w3.org/2000/svg"
   xmlns="http://www.w3.org/2000/svg"
   xmlns:sodipodi="http://sodipodi.sourceforge.net/DTD/sodipodi-0.dtd"
   xmlns:inkscape="http://www.inkscape.org/namespaces/inkscape"
   width="173"
   height="36"
   id="svg3035"
   version="1.1"
   inkscape:version="0.48.5 r10040"
   sodipodi:docname="header_luarocks_logo.svg">
  <defs
     id="defs3037" />
  <sodipodi:namedview
     id="base"
     pagecolor="#ffffff"
     bordercolor="#666666"
     borderopacity="1.0"
     inkscape:pageopacity="0.0"
     inkscape:pageshadow="2"
     inkscape:zoom="8.4518349"
     inkscape:cx="81.510127"
     inkscape:cy="11.056579"
     inkscape:current-layer="layer1"
     showgrid="true"
     inkscape:document-units="px"
     inkscape:grid-bbox="true"
     inkscape:window-width="1532"
     inkscape:window-height="885"
     inkscape:window-x="1529"
     inkscape:window-y="119"
     inkscape:window-maximized="0"
     fit-margin-top="0"
     fit-margin-left="0"
     fit-margin-right="0"
     fit-margin-bottom="0" />
  <metadata
     id="metadata3040">
    <rdf:RDF>
      <cc:Work
         rdf:about="">
        <dc:format>image/svg+xml</dc:format>
        <dc:type
           rdf:resource="http://purl.org/dc/dcmitype/StillImage" />
        <dc:title />
      </cc:Work>
    </rdf:RDF>
  </metadata>
  <g
     id="layer1"
     inkscape:label="Layer 1"
     inkscape:groupmode="layer"
     transform="translate(0,-28)">
    <rect
       style="fill:#2c4067;fill-opacity:1;stroke:none"
       id="rect3011"
       width="173"
       height="36"
       x="0"
       y="28"
       inkscape:export-filename="/Users/hisham/luarocks/logo/luarocks_header.png"
       inkscape:export-xdpi="26.76"
       inkscape:export-ydpi="26.76" />
    <g
       transform="scale(0.99585797,1.0041593)"
       style="font-size:42.80292892px;font-style:normal;font-weight:normal;line-height:125%;letter-spacing:0px;word-spacing:0px;fill:#ffffff;fill-opacity:1;stroke:none;font-family:Sans"
       id="text3939">
      <path
         d="m 1.8923452,30.531662 5.8519629,0 0,25.163441 8.5271459,0 0,5.580265 -14.3791088,0 0,-30.743706"
         style="font-variant:normal;font-weight:bold;font-stretch:normal;fill:#ffffff;font-family:Century Gothic;-inkscape-font-specification:Century Gothic Bold"
         id="path2986" />
      <path
         d="m 17.322326,38.536312 5.768364,0 0,10.95153 c -9e-6,2.131797 0.14629,3.615686 0.438897,4.451672 0.292589,0.822068 0.759352,1.462997 1.400291,1.922788 0.654852,0.459802 1.456012,0.6897 2.403485,0.689696 0.947447,4e-6 1.748608,-0.222927 2.403485,-0.668796 0.66878,-0.459791 1.163409,-1.128586 1.48389,-2.006387 0.236848,-0.654855 0.355281,-2.055145 0.355298,-4.200874 l 0,-11.139629 5.726564,0 0,9.634839 c -2.3e-5,3.970984 -0.313521,6.687964 -0.940494,8.150948 -0.76635,1.783459 -1.894942,3.155882 -3.385779,4.117274 -1.490874,0.947461 -3.385794,1.42119 -5.684764,1.421191 -2.494061,-10e-7 -4.51438,-0.55733 -6.060961,-1.671989 -1.532663,-1.114658 -2.612488,-2.668213 -3.23948,-4.660671 -0.445867,-1.379384 -0.668799,-3.887366 -0.668796,-7.523952 l 0,-9.46764"
         style="font-variant:normal;font-weight:bold;font-stretch:normal;fill:#ffffff;font-family:Century Gothic;-inkscape-font-specification:Century Gothic Bold"
         id="path2988" />
      <path
         d="m 56.943511,38.536312 5.684764,0 0,22.739056 -5.684764,0 0,-2.403485 c -1.114678,1.058928 -2.236303,1.825256 -3.364879,2.298985 -1.114675,0.459797 -2.326866,0.689695 -3.636577,0.689696 -2.939924,-10e-7 -5.482739,-1.135559 -7.628451,-3.406678 -2.145723,-2.285047 -3.218582,-5.12046 -3.21858,-8.506247 -2e-6,-3.511162 1.038024,-6.388375 3.11408,-8.631645 2.076047,-2.24323 4.597961,-3.364855 7.565752,-3.364879 1.365444,2.4e-5 2.647302,0.257789 3.845576,0.773296 1.198241,0.515552 2.305933,1.288846 3.323079,2.319885 l 0,-2.507984 m -5.998262,4.68157 c -1.769534,1.8e-5 -3.23949,0.627014 -4.409872,1.880988 -1.170401,1.240074 -1.755597,2.835429 -1.755589,4.78607 -8e-6,1.964597 0.592155,3.580852 1.776489,4.848769 1.198248,1.267931 2.668204,1.901893 4.409872,1.901888 1.797373,5e-6 3.288229,-0.620024 4.472571,-1.860088 1.184307,-1.253984 1.776469,-2.891139 1.776489,-4.911469 -2e-5,-1.978507 -0.592182,-3.580829 -1.776489,-4.80697 -1.184342,-1.226108 -2.682165,-1.83917 -4.493471,-1.839188"
         style="font-variant:normal;font-weight:bold;font-stretch:normal;fill:#ffffff;font-family:Century Gothic;-inkscape-font-specification:Century Gothic Bold"
         id="path2990" />
      <path
         d="m 65.247435,30.531662 6.207261,0 c 3.399698,3.1e-5 5.817114,0.306562 7.252254,0.919595 1.449039,0.599158 2.612463,1.602351 3.490278,3.009581 0.877773,1.407283 1.316669,3.072304 1.316692,4.995068 -2.3e-5,2.02034 -0.487686,3.713228 -1.462991,5.078668 -0.961414,1.35154 -2.417437,2.375632 -4.368073,3.07228 l 7.273154,13.668514 -6.395359,0 -6.917856,-13.020618 -0.543397,0 0,13.020618 -5.851963,0 0,-30.743706 m 5.851963,12.017424 1.839189,0 c 1.867041,1.9e-5 3.148898,-0.243812 3.845575,-0.731495 0.710579,-0.487644 1.065877,-1.295771 1.065893,-2.424385 -1.6e-5,-0.668773 -0.174182,-1.247002 -0.522496,-1.734689 -0.348347,-0.501572 -0.81511,-0.85687 -1.400291,-1.065893 -0.585211,-0.222907 -1.65807,-0.334373 -3.21858,-0.334398 l -1.60929,0 0,6.29086"
         style="font-variant:normal;font-weight:bold;font-stretch:normal;fill:#ffffff;font-family:Century Gothic;-inkscape-font-specification:Century Gothic Bold"
         id="path2992" />
      <path
         d="m 95.200385,37.951115 c 2.145704,2.4e-5 4.159056,0.536453 6.040065,1.60929 1.8949,1.072881 3.37182,2.528903 4.43077,4.368073 1.0589,1.839203 1.58836,3.824689 1.58839,5.956462 -3e-5,2.145729 -0.53646,4.152114 -1.60929,6.019162 -1.05895,1.867058 -2.50801,3.330047 -4.34717,4.388972 -1.83921,1.044993 -3.866495,1.567489 -6.081865,1.56749 -3.26039,-10e-7 -6.047036,-1.156459 -8.359947,-3.469378 -2.298989,-2.326847 -3.44848,-5.148326 -3.448479,-8.464446 -10e-7,-3.552963 1.302756,-6.513775 3.908276,-8.882444 2.285044,-2.062098 4.911458,-3.093157 7.87925,-3.093181 m 0.0836,5.371266 c -1.769534,1.8e-5 -3.246456,0.620047 -4.430772,1.860089 -1.1704,1.22614 -1.755596,2.800595 -1.755589,4.72337 -7e-6,1.97853 0.578222,3.580852 1.734689,4.806969 1.170383,1.226131 2.647305,1.839193 4.430772,1.839189 1.78344,4e-6 3.267329,-0.620024 4.451672,-1.860089 1.184304,-1.240051 1.776474,-2.835406 1.776484,-4.786069 -1e-5,-1.950641 -0.58521,-3.532063 -1.755584,-4.74427 -1.156476,-1.226108 -2.640365,-1.839171 -4.451672,-1.839189"
         style="font-variant:normal;font-weight:bold;font-stretch:normal;fill:#ffffff;font-family:Century Gothic;-inkscape-font-specification:Century Gothic Bold"
         id="path2994" />
      <path
         d="m 131.98382,43.134283 -4.74427,2.612483 c -0.89175,-0.933511 -1.77651,-1.581406 -2.65428,-1.943688 -0.86388,-0.362246 -1.88101,-0.543378 -3.05138,-0.543396 -2.1318,1.8e-5 -3.85952,0.640946 -5.18317,1.922788 -1.30973,1.26794 -1.96459,2.898128 -1.96459,4.890569 0,1.93673 0.63396,3.518152 1.90189,4.74427 1.26792,1.22613 2.93294,1.839193 4.99507,1.839188 2.54977,5e-6 4.53525,-0.870822 5.95646,-2.612483 l 4.49347,3.07228 c -2.43834,3.162848 -5.87985,4.744269 -10.32453,4.74427 -3.99885,-10e-7 -7.13383,-1.184325 -9.40494,-3.552977 -2.25719,-2.368647 -3.38578,-5.14136 -3.38578,-8.318148 0,-2.201439 0.55036,-4.228724 1.65109,-6.081861 1.10072,-1.853103 2.63338,-3.309125 4.59797,-4.368073 1.97851,-1.058903 4.18693,-1.588366 6.62526,-1.58839 2.25717,2.4e-5 4.28445,0.452854 6.08186,1.358492 1.79737,0.891749 3.26732,2.166639 4.40987,3.824676"
         style="font-variant:normal;font-weight:bold;font-stretch:normal;fill:#ffffff;font-family:Century Gothic;-inkscape-font-specification:Century Gothic Bold"
         id="path2996" />
      <path
         d="m 133.68505,29.758367 5.70566,0 0,18.161985 8.40175,-9.38404 7.14775,0 -9.78113,10.909731 10.97243,11.829325 -7.08506,0 -9.65574,-10.470834 0,10.470834 -5.70566,0 0,-31.517001"
         style="font-variant:normal;font-weight:bold;font-stretch:normal;fill:#ffffff;font-family:Century Gothic;-inkscape-font-specification:Century Gothic Bold"
         id="path2998" />
      <path
         d="m 171.40922,41.713092 -3.53207,3.532077 c -1.43514,-1.421173 -2.7379,-2.131768 -3.90828,-2.131786 -0.64094,1.8e-5 -1.14253,0.13935 -1.50479,0.417997 -0.36227,0.264749 -0.5434,0.599147 -0.5434,1.003194 0,0.306548 0.11146,0.592179 0.3344,0.856894 0.23686,0.250814 0.80812,0.599145 1.71379,1.044994 l 2.08999,1.044993 c 2.20144,1.086806 3.71319,2.194498 4.53527,3.323079 0.82204,1.128602 1.23307,2.452259 1.23309,3.970975 -2e-5,2.020325 -0.74544,3.706246 -2.23628,5.057768 -1.47694,1.351525 -3.46243,2.027286 -5.95647,2.027287 -3.31611,-10e-7 -5.96343,-1.295791 -7.94195,-3.887375 l 3.51118,-3.824676 c 0.66879,0.780268 1.44905,1.41423 2.34079,1.901888 0.90565,0.473735 1.70681,0.7106 2.40348,0.710595 0.75239,5e-6 1.35848,-0.181127 1.81829,-0.543396 0.45979,-0.362259 0.68968,-0.780256 0.6897,-1.253992 -2e-5,-0.877788 -0.82904,-1.734681 -2.48709,-2.570684 l -1.92279,-0.961394 c -3.67838,-1.85311 -5.51756,-4.172993 -5.51756,-6.959656 0,-1.79737 0.68969,-3.330025 2.06909,-4.597971 1.39331,-1.281836 3.1698,-1.922764 5.32946,-1.922788 1.47692,2.4e-5 2.86327,0.327455 4.15908,0.982294 1.30971,0.640951 2.4174,1.567511 3.32307,2.779683"
         style="font-variant:normal;font-weight:bold;font-stretch:normal;fill:#ffffff;font-family:Century Gothic;-inkscape-font-specification:Century Gothic Bold"
         id="path3000" />
    </g>
  </g>
</svg>
