<?xml version="1.0" encoding="UTF-8" standalone="no"?>
<svg id="svg3035" xmlns:rdf="http://www.w3.org/1999/02/22-rdf-syntax-ns#" xmlns="http://www.w3.org/2000/svg" height="36" width="36" version="1.1" xmlns:cc="http://creativecommons.org/ns#" xmlns:dc="http://purl.org/dc/elements/1.1/">
 <g id="layer1" transform="translate(0,-28)">
  <rect id="rect3011" height="36" width="36" y="28" x="0" fill="#2c4067"/>
  <g id="g3080" transform="matrix(.29530 0 0 .29530 24.401 49.032)">
   <path id="path5145" d="m7.528 13.788c0.36143 7.3741-9.0259 12.367-14.939 7.9454-6.2567-3.7974-5.2402-14.249 1.6276-16.774 6.0826-2.7636 13.492 2.142 13.312 8.8288z" stroke="#2c4067" stroke-width=".48020" fill="#fff"/>
   <g>
    <path id="path5147" d="m-13.854-68.259c13.935 13.68 27.869 27.361 41.804 41.041 0.00003 16.931 0.00007 33.862 0.0001 50.793l-41.266-40.651" stroke="#fff" stroke-width="1.9883" fill="none"/>
    <path id="path5149" d="m-14.157-67.546l-62.513 21.426v51.474c20.838-7.118 41.675-14.236 62.513-21.354v-51.546z" stroke="#fff" stroke-width="2" fill="none"/>
    <path id="path5153" d="m9.4575-14.078c0.35417 16.068-12.747 30.942-28.721 32.649-15.651 2.3414-31.824-8.35-35.856-23.638-4.5485-14.895 3.2445-32.192 17.395-38.678 14.163-7.1658 32.956-2.0736 41.561 11.265 3.6603 5.391 5.6389 11.887 5.621 18.402z" stroke="#2c4067" stroke-width="2" fill="#fff"/>
   </g>
   <path id="path5155" d="m-1.3804-29.468c1.3767 7.1969-7.5521 11.703-13.545 6.8376-6.3471-4.2669-5.2386-14.434 1.6893-15.519 5.1422-1.2362 11.239 3.2246 11.856 8.681z" stroke="#fff" stroke-width=".44407" fill="#2c4067"/>
   <g stroke="#2c4067" fill="#fff">
    <path id="path5157" d="m19.345-48.002c0.36143 7.3741-9.0259 12.367-14.939 7.9454-6.2567-3.7974-5.2402-14.249 1.6276-16.774 6.0826-2.7636 13.492 2.142 13.312 8.8288z" stroke-width="2"/>
    <path id="path5159" d="m-55.807-31.948c0.37579 7.225-9.2179 11.749-14.554 6.8642-5.7753-4.2835-3.2409-14.491 3.8656-15.579 5.3351-1.241 10.832 3.2371 10.688 8.7148z" stroke-width=".44580"/>
    <path id="path5161" d="m36.401-39.058c0.0147 9.0646-14.773 4.5833-9.6813-2.9591 2.6755-4.3227 9.8792-2.1245 9.6813 2.9591z" stroke-width=".26524"/>
   </g>
   <g fill="none">
    <path id="path5165" d="m-77.015-46.502c13.645 14.069 27.291 28.138 40.936 42.208m0.6189 52.207l-41.529-41.864" stroke="#fff" stroke-width="1.9549"/>
    <path id="path5169" d="m28.041 25.079c-0.00003-17.107-0.00007-34.213-0.0001-51.32-21.057 7.3947-42.114 14.789-63.17 22.184v51.247l63.17-22.111z" stroke="#fff" stroke-width="2.0034"/>
    <path id="path5171" d="m24.952-27.249c-19.967 6.9938-39.933 13.988-59.9 20.981" stroke="#2c4067" stroke-linecap="round" stroke-width="2"/>
    <path id="path5173" d="m-72.282-44.133l37.228 37.828" stroke="#2c4067" stroke-linecap="round" stroke-width="2"/>
   </g>
   <g stroke="#2c4067" stroke-linecap="round" stroke-width="2">
    <path id="path5175" d="m25.98-23.319c-19.66 6.8414-39.32 13.683-58.981 20.524" fill="#fff"/>
    <path id="path5177" d="m-33.076 35.429c-0.0327-12.707-0.0653-25.414-0.098-38.121" fill="none"/>
    <path id="path5179" d="m-72.792-39.304l35.567 36.342" fill="#ff0"/>
    <path id="path5181" d="m-37.118 35.429c0.008-12.741 0.0153-25.481 0.023-38.222" fill="none"/>
   </g>
  </g>
 </g>
</svg>
