<svg xmlns="http://www.w3.org/2000/svg" xmlns:xlink="http://www.w3.org/1999/xlink" preserveAspectRatio="xMidYMid" width="117" height="47" viewBox="0 0 117 47">
  <defs>
    <style>

      .cls-4 {
        fill: #1a1a1a;
      }

      .cls-8 {
        fill: #abb4c8;
      }

      .cls-9 {
        fill: #12313e;
      }

      .cls-10 {
        fill: #b4bfd0;
      }

      .cls-12 {
        fill: #163b4b;
      }

      .cls-13 {
        fill: #d6dce5;
      }

      .cls-14 {
        fill: #9aa1b9;
      }

      .cls-17 {
        fill: #65b9e6;
      }

      .cls-18 {
        fill: #50aad1;
      }

      .cls-19 {
        fill: #0e252c;
      }

      .cls-21 {
        fill: #0b0b0b;
      }

      .cls-22 {
        fill: #ffffff;
      }

      .cls-23 {
        fill: #525364;
      }

      .cls-24 {
        fill: #404040;
        opacity: 0.5;
      }
    </style>
  </defs>
  <g id="supported-bysvg">
    <g id="logo">
      <path d="M106.393,35.729 C106.393,35.729 106.393,31.080 106.393,31.080 C106.393,31.080 116.318,31.080 116.318,31.080 C116.318,31.080 116.318,39.239 116.318,39.239 C114.099,41.671 111.109,43.242 107.226,43.242 C101.092,43.242 96.099,39.147 96.099,32.619 C96.099,26.092 101.092,21.997 107.226,21.997 C111.818,21.997 114.592,24.430 116.010,26.985 C116.010,26.985 111.572,29.294 111.572,29.294 C110.801,27.940 109.229,26.677 107.226,26.677 C103.866,26.677 101.493,29.263 101.493,32.619 C101.493,35.975 103.866,38.562 107.226,38.562 C108.736,38.562 110.277,37.946 111.017,37.330 C111.017,37.330 111.017,35.729 111.017,35.729 C111.017,35.729 106.393,35.729 106.393,35.729 ZM79.635,30.988 C79.635,30.988 79.635,42.872 79.635,42.872 C79.635,42.872 74.333,42.872 74.333,42.872 C74.333,42.872 74.333,22.336 74.333,22.336 C74.333,22.336 79.789,22.336 79.789,22.336 C79.789,22.336 88.111,33.635 88.111,33.635 C88.111,33.635 88.111,22.336 88.111,22.336 C88.111,22.336 93.443,22.336 93.443,22.336 C93.443,22.336 93.443,42.872 93.443,42.872 C93.443,42.872 88.327,42.872 88.327,42.872 C88.327,42.872 79.635,30.988 79.635,30.988 ZM60.674,43.242 C54.386,43.242 49.670,38.870 49.670,32.619 C49.670,26.369 54.386,21.997 60.674,21.997 C66.961,21.997 71.646,26.369 71.646,32.619 C71.646,38.870 66.961,43.242 60.674,43.242 ZM60.674,26.677 C57.252,26.677 55.064,29.263 55.064,32.619 C55.064,35.945 57.252,38.562 60.674,38.562 C64.064,38.562 66.253,35.945 66.253,32.619 C66.253,29.263 64.064,26.677 60.674,26.677 ZM50.498,42.872 C50.498,42.872 43.994,42.872 43.994,42.872 C43.994,42.872 38.600,35.144 38.600,35.144 C38.600,35.144 37.213,36.868 37.213,36.868 C37.213,36.868 37.213,42.872 37.213,42.872 C37.213,42.872 31.912,42.872 31.912,42.872 C31.912,42.872 31.912,22.336 31.912,22.336 C31.912,22.336 37.213,22.336 37.213,22.336 C37.213,22.336 37.213,30.772 37.213,30.772 C37.213,30.772 43.532,22.336 43.532,22.336 C43.532,22.336 50.066,22.336 50.066,22.336 C50.066,22.336 42.083,31.942 42.083,31.942 C42.083,31.942 50.498,42.872 50.498,42.872 Z" id="path-1" class="cls-4" fill-rule="evenodd"/>
      <g id="jason-logo-head">
        <g id="jason-head">
          <g id="bg">
            <path d="M23.984,35.530 C23.984,35.530 23.898,35.527 23.898,35.527 C23.898,35.527 23.893,35.459 23.893,35.459 C23.876,35.239 23.552,34.647 23.429,34.438 C23.429,34.438 23.368,34.333 23.368,34.333 C23.368,34.333 23.726,34.305 23.726,34.305 C23.432,33.928 23.363,33.511 23.539,33.143 C23.696,32.815 24.039,32.576 24.353,32.576 C24.393,32.579 25.173,32.659 25.134,34.106 C25.097,35.490 24.098,35.530 23.984,35.530 ZM19.617,35.160 C19.604,35.182 19.591,35.205 19.578,35.226 C19.419,35.557 19.231,36.003 19.068,36.406 C19.964,36.177 21.731,35.993 20.320,40.137 C19.922,41.306 18.787,42.300 17.154,42.944 C17.353,42.980 17.578,43.032 17.819,43.097 C16.446,43.447 14.627,43.750 12.409,43.764 C12.409,43.764 12.469,43.753 12.570,43.732 C9.187,43.729 5.487,42.618 4.845,40.137 C4.343,38.201 6.539,36.526 6.560,36.509 C6.560,36.509 6.647,36.446 6.647,36.446 C6.646,36.446 3.946,36.167 3.820,33.791 C3.693,31.415 5.039,31.467 5.753,30.073 C6.468,28.679 8.444,29.515 10.764,29.450 C13.084,29.385 13.278,29.714 15.417,29.291 C17.556,28.867 20.172,30.391 21.475,32.184 C22.741,33.926 20.110,34.422 19.617,35.160 ZM1.954,34.438 C1.830,34.647 1.507,35.239 1.490,35.459 C1.490,35.459 1.485,35.527 1.485,35.527 C1.485,35.527 1.399,35.530 1.399,35.530 C1.285,35.530 0.286,35.490 0.249,34.106 C0.210,32.659 0.990,32.579 1.024,32.576 C1.024,32.576 1.024,32.576 1.024,32.576 C1.345,32.576 1.687,32.815 1.844,33.143 C2.020,33.511 1.951,33.928 1.657,34.305 C1.657,34.305 2.015,34.333 2.015,34.333 C2.015,34.333 1.954,34.438 1.954,34.438 Z" id="path-2" class="cls-8" fill-rule="evenodd"/>
            <path d="M24.384,32.345 C24.384,32.345 24.370,32.344 24.370,32.344 C24.370,32.344 24.356,32.344 24.356,32.344 C24.281,32.344 24.205,32.357 24.129,32.375 C24.129,32.375 24.129,32.222 24.129,32.222 C24.129,32.222 24.136,32.222 24.136,32.222 C24.301,30.978 24.368,29.850 24.342,28.825 C24.342,28.825 24.342,28.825 24.342,28.825 C24.342,21.486 17.944,18.897 17.944,18.897 C17.944,18.897 17.944,19.531 17.944,19.531 C16.824,18.632 15.744,17.943 15.744,17.943 C15.744,17.943 15.744,18.984 15.744,18.984 C15.530,18.858 15.330,18.744 15.143,18.640 C14.585,18.266 13.773,17.687 13.354,17.227 C13.354,17.227 12.784,18.770 12.784,18.770 C12.784,18.770 12.354,17.380 12.354,17.380 C12.192,17.868 10.763,18.764 10.763,18.765 C10.763,18.765 10.763,18.765 10.763,18.765 C10.767,18.123 10.572,17.098 10.572,17.098 C10.572,17.098 7.707,19.404 7.707,19.404 C7.707,19.404 7.434,18.559 7.434,18.559 C7.434,18.559 5.978,19.493 5.121,20.504 C5.121,20.504 5.121,20.014 5.121,20.014 C5.121,20.014 0.836,22.845 0.836,28.555 C0.836,28.567 0.836,28.578 0.836,28.590 C0.791,29.371 0.804,30.211 0.880,31.116 C0.928,32.172 0.999,32.222 0.999,32.222 C0.999,32.222 0.999,32.345 0.999,32.345 C0.999,32.345 0.999,32.345 0.999,32.345 C0.956,32.349 -0.043,32.449 0.001,34.114 C0.028,35.129 0.553,35.563 1.021,35.707 C1.044,36.463 1.517,44.132 11.294,44.734 C11.294,44.734 14.060,44.734 14.060,44.734 C23.803,44.134 24.307,36.517 24.333,35.716 C24.808,35.581 25.354,35.149 25.382,34.114 C25.426,32.449 24.427,32.349 24.384,32.345 ZM1.405,35.458 C1.405,35.458 1.402,35.458 1.396,35.458 C1.290,35.458 0.361,35.421 0.325,34.106 C0.289,32.712 1.027,32.652 1.027,32.652 C1.576,32.652 2.305,33.494 1.494,34.373 C1.494,34.373 1.879,34.403 1.879,34.403 C1.879,34.403 1.428,35.173 1.405,35.458 ZM20.197,33.505 C20.116,35.182 18.548,36.411 18.533,36.423 C18.533,36.423 18.448,36.490 18.448,36.490 C18.448,36.490 18.534,36.554 18.534,36.554 C18.556,36.570 20.248,37.451 19.746,39.391 C19.103,41.879 15.977,43.153 12.589,43.153 C9.202,43.153 6.076,41.879 5.433,39.391 C4.931,37.451 6.623,36.570 6.644,36.554 C6.644,36.554 6.731,36.490 6.731,36.490 C6.731,36.490 6.646,36.423 6.646,36.423 C6.630,36.411 5.062,35.182 4.981,33.505 C4.934,32.538 5.386,31.605 6.324,30.734 C6.958,30.145 7.809,29.847 8.855,29.847 C10.446,29.847 11.981,30.536 12.589,30.901 C13.197,30.536 14.733,29.847 16.323,29.847 C17.370,29.847 18.221,30.145 18.855,30.734 C19.792,31.605 20.245,32.538 20.197,33.505 ZM25.057,34.106 C25.022,35.421 24.093,35.458 23.987,35.458 C23.981,35.458 23.978,35.458 23.978,35.458 C23.955,35.173 23.504,34.403 23.504,34.403 C23.504,34.403 23.889,34.373 23.889,34.373 C23.078,33.494 23.807,32.652 24.356,32.652 C24.356,32.652 25.094,32.712 25.057,34.106 Z" id="path-3" class="cls-9" fill-rule="evenodd"/>
            <path d="M18.128,38.534 C18.128,40.160 15.694,41.478 12.691,41.478 C9.689,41.478 7.255,40.160 7.255,38.534 C7.255,36.908 9.689,35.590 12.691,35.590 C15.694,35.590 18.128,36.908 18.128,38.534 Z" id="path-4" class="cls-10" fill-rule="evenodd"/>
          </g>
          <g id="details">
            <path d="M4.506,29.786 C5.213,29.159 6.003,28.657 6.957,28.437 C8.335,28.117 9.795,28.351 11.106,28.808 C11.555,28.965 11.996,29.145 12.415,29.364 C12.675,29.500 12.686,29.554 12.951,29.412 C13.789,28.963 14.716,28.637 15.658,28.446 C16.775,28.221 17.977,28.209 19.054,28.600 C20.364,29.074 21.180,29.987 21.996,31.019 C21.444,29.762 20.633,28.688 19.324,28.052 C18.288,27.549 17.080,27.422 15.934,27.548 C14.915,27.659 13.918,27.944 12.993,28.359 C12.743,28.472 12.712,28.471 12.463,28.359 C12.232,28.255 11.997,28.160 11.758,28.074 C11.235,27.884 10.693,27.733 10.142,27.635 C8.910,27.417 7.600,27.444 6.433,27.915 C4.972,28.503 4.050,29.669 3.460,31.019 C3.796,30.593 4.124,30.177 4.506,29.786 Z" id="path-5" class="cls-12" fill-rule="evenodd"/>
            <path d="M13.629,36.996 C13.208,36.996 12.750,36.826 12.577,36.755 C12.405,36.826 11.947,36.996 11.525,36.996 C10.994,36.996 10.131,36.714 10.131,36.714 C10.131,36.714 9.693,36.045 10.362,35.403 C10.972,34.818 12.526,35.549 12.526,35.549 C12.526,35.549 12.577,35.549 12.577,35.549 C12.577,35.549 12.629,35.549 12.629,35.549 C12.629,35.549 14.120,34.883 14.792,35.403 C15.532,35.973 15.021,36.714 15.021,36.714 C15.021,36.714 14.160,36.996 13.629,36.996 ZM16.450,39.887 C16.450,39.887 15.180,40.855 12.655,40.855 C10.130,40.855 8.860,39.887 8.860,39.887 C8.860,39.887 10.313,40.390 12.676,40.390 C15.039,40.390 16.450,39.887 16.450,39.887 Z" id="path-6" class="cls-13" fill-rule="evenodd"/>
            <path d="M19.811,33.319 C18.042,29.634 12.582,31.808 12.582,31.808 C12.582,31.808 7.122,29.634 5.354,33.319 C5.354,33.319 5.211,30.928 8.041,30.240 C9.879,29.793 12.577,31.253 12.582,31.251 C12.587,31.253 15.285,29.793 17.123,30.240 C19.952,30.928 19.811,33.319 19.811,33.319 ZM9.921,35.827 C9.925,35.929 9.928,36.031 9.932,36.133 C9.199,36.115 8.532,36.473 7.941,36.838 C8.508,36.363 9.144,35.917 9.921,35.827 ZM17.161,36.838 C16.558,36.426 15.889,36.089 15.121,36.101 C15.125,35.999 15.130,35.897 15.135,35.795 C15.941,35.887 16.594,36.320 17.161,36.838 Z" id="path-7" class="cls-14" fill-rule="evenodd"/>
            <path d="M18.599,39.227 C18.546,39.057 18.522,38.880 18.470,38.709 C18.445,38.732 18.420,38.755 18.394,38.778 C18.008,39.118 17.557,39.393 17.088,39.618 C16.245,40.022 15.323,40.267 14.390,40.395 C13.154,40.563 11.872,40.550 10.642,40.338 C9.756,40.186 8.886,39.921 8.095,39.510 C7.671,39.290 7.261,39.028 6.913,38.708 C6.866,38.878 6.846,39.054 6.797,39.224 C6.657,39.006 6.630,38.725 6.742,38.491 C6.846,38.274 7.113,38.071 7.381,38.117 C7.275,38.190 7.176,38.275 7.096,38.373 C7.057,38.421 7.068,38.421 7.106,38.456 C7.131,38.479 7.156,38.502 7.181,38.524 C7.251,38.584 7.323,38.642 7.396,38.698 C7.629,38.874 7.877,39.030 8.135,39.170 C8.987,39.634 9.940,39.919 10.908,40.068 C12.240,40.273 13.637,40.251 14.958,39.986 C15.842,39.808 16.708,39.510 17.473,39.052 C17.692,38.920 17.903,38.776 18.099,38.614 C18.157,38.566 18.214,38.516 18.269,38.464 C18.278,38.456 18.291,38.447 18.298,38.437 C18.313,38.415 18.315,38.418 18.292,38.390 C18.208,38.286 18.098,38.196 17.984,38.122 C18.306,38.058 18.643,38.350 18.694,38.636 C18.732,38.842 18.712,39.043 18.599,39.227 ZM14.465,36.301 C14.465,36.519 14.188,36.697 13.846,36.697 C13.503,36.697 13.226,36.519 13.226,36.301 C13.226,36.081 13.503,35.904 13.846,35.904 C14.188,35.904 14.465,36.081 14.465,36.301 ZM15.116,36.107 C15.065,35.776 14.816,35.481 14.480,35.376 C14.070,35.248 13.611,35.295 13.193,35.364 C13.580,35.199 14.088,35.116 14.502,35.230 C14.696,35.284 14.870,35.376 15.003,35.523 C15.041,35.563 15.074,35.613 15.104,35.659 C15.120,35.684 15.261,35.969 15.233,35.975 C15.264,36.246 15.209,36.518 15.011,36.727 C15.091,36.523 15.151,36.329 15.116,36.107 ZM11.431,36.697 C11.089,36.697 10.812,36.519 10.812,36.301 C10.812,36.081 11.089,35.904 11.431,35.904 C11.772,35.904 12.049,36.081 12.049,36.301 C12.049,36.519 11.772,36.697 11.431,36.697 ZM10.290,35.648 C10.161,35.811 10.073,35.992 10.060,36.197 C10.049,36.387 10.106,36.553 10.175,36.727 C9.846,36.379 9.884,35.862 10.191,35.516 C10.298,35.414 10.403,35.334 10.545,35.276 C10.712,35.208 10.901,35.184 11.082,35.183 C11.387,35.182 11.715,35.242 11.993,35.364 C11.775,35.326 11.554,35.304 11.333,35.300 C10.964,35.295 10.527,35.347 10.290,35.648 Z" id="path-8" class="cls-9" fill-rule="evenodd"/>
          </g>
          <g id="bowtie">
            <path d="M8.277,43.627 C8.277,43.627 8.130,43.003 9.300,43.199 C10.469,43.396 11.760,43.882 11.760,43.882 C11.760,43.882 11.845,43.473 12.564,43.521 C13.282,43.569 13.672,43.940 13.672,43.940 C13.672,43.940 15.353,43.234 16.047,43.245 C16.741,43.257 16.790,43.084 16.875,43.338 C16.960,43.592 16.948,43.801 16.875,44.159 C16.802,44.518 16.461,44.923 16.461,45.165 C16.461,45.408 16.911,46.780 16.278,46.865 C15.645,46.950 13.587,45.894 13.587,45.894 C13.587,45.894 13.440,46.310 12.771,46.310 C12.101,46.310 11.748,46.032 11.748,46.032 C11.748,46.032 9.507,46.921 9.129,46.870 C8.751,46.819 8.727,46.448 8.776,46.113 C8.825,45.778 8.958,45.176 8.885,45.119 C8.812,45.061 8.277,43.627 8.277,43.627 Z" id="path-9" class="cls-17" fill-rule="evenodd"/>
            <path d="M9.210,45.225 C9.210,45.225 9.267,45.877 9.814,45.877 C10.361,45.877 11.531,45.023 11.531,45.023 C11.531,45.023 12.312,45.570 12.735,45.570 C13.158,45.570 13.506,45.023 13.506,45.023 C13.506,45.023 15.996,45.385 16.661,44.575 C17.326,43.764 16.506,45.193 16.506,45.193 C16.506,45.193 16.979,46.764 16.441,46.892 C15.902,47.020 13.664,45.973 13.664,45.973 C13.664,45.973 13.072,46.333 12.659,46.326 C12.246,46.319 11.806,46.056 11.806,46.056 C11.806,46.056 9.358,46.965 8.963,46.799 C8.568,46.634 8.870,45.437 9.210,45.225 Z" id="path-10" class="cls-18" fill-rule="evenodd"/>
            <path d="M17.288,43.382 C17.253,43.235 17.155,43.120 17.006,43.049 C16.316,42.726 14.383,43.479 13.688,43.771 C13.467,43.497 13.120,43.320 12.730,43.320 C12.340,43.320 11.993,43.498 11.772,43.772 C11.080,43.482 9.141,42.726 8.450,43.049 C8.301,43.120 8.203,43.235 8.167,43.382 C7.984,44.139 8.515,45.007 8.708,45.291 C8.600,45.588 8.355,46.394 8.653,46.881 C8.743,47.027 8.922,47.089 9.162,47.089 C9.802,47.089 10.875,46.650 11.820,46.192 C12.042,46.434 12.367,46.588 12.730,46.588 C13.115,46.588 13.457,46.416 13.678,46.149 C14.619,46.627 15.683,47.085 16.313,47.085 C16.543,47.085 16.715,47.024 16.802,46.881 C17.101,46.394 16.855,45.588 16.748,45.291 C16.941,45.007 17.471,44.139 17.288,43.382 ZM9.032,46.672 C8.825,46.335 9.058,45.577 9.156,45.338 C9.156,45.338 9.199,45.232 9.199,45.232 C9.199,45.232 9.129,45.140 9.129,45.140 C8.932,44.879 8.450,44.071 8.594,43.475 C8.598,43.458 8.605,43.441 8.644,43.423 C9.043,43.236 10.532,43.711 11.573,44.144 C11.541,44.247 11.523,44.356 11.523,44.468 C11.523,44.468 11.523,45.439 11.523,45.439 C11.523,45.577 11.550,45.709 11.597,45.832 C10.395,46.407 9.221,46.791 9.032,46.672 ZM13.500,45.439 C13.500,45.843 13.155,46.171 12.730,46.171 C12.306,46.171 11.961,45.843 11.961,45.439 C11.961,45.439 11.961,44.468 11.961,44.468 C11.961,44.065 12.306,43.736 12.730,43.736 C13.155,43.736 13.500,44.065 13.500,44.468 C13.500,44.468 13.500,45.439 13.500,45.439 ZM16.300,45.338 C16.398,45.576 16.631,46.333 16.433,46.662 C16.235,46.785 15.068,46.377 13.884,45.780 C13.919,45.672 13.938,45.557 13.938,45.439 C13.938,45.439 13.938,44.468 13.938,44.468 C13.938,44.355 13.920,44.246 13.888,44.142 C14.928,43.709 16.414,43.236 16.812,43.423 C16.851,43.441 16.858,43.458 16.862,43.475 C17.035,44.191 16.333,45.131 16.326,45.140 C16.326,45.140 16.257,45.232 16.257,45.232 C16.257,45.232 16.300,45.338 16.300,45.338 Z" id="path-11" class="cls-19" fill-rule="evenodd"/>
          </g>
          <g id="eyes">
            <path d="M17.051,34.604 C16.936,34.842 16.736,35.010 16.489,35.073 C16.467,35.079 16.445,35.084 16.424,35.088 C16.422,35.088 16.422,35.088 16.422,35.088 C15.941,35.174 15.443,34.835 15.291,34.317 C15.214,34.055 15.231,33.785 15.342,33.556 C15.457,33.319 15.657,33.151 15.904,33.088 C16.406,32.957 16.944,33.302 17.103,33.844 C17.179,34.105 17.162,34.374 17.051,34.604 ZM8.988,35.101 C8.965,35.097 8.943,35.094 8.920,35.089 C8.441,34.987 8.130,34.489 8.210,33.957 C8.251,33.688 8.383,33.447 8.582,33.279 C8.788,33.105 9.042,33.026 9.296,33.061 C9.813,33.129 10.157,33.648 10.073,34.205 C9.988,34.767 9.501,35.170 8.988,35.101 Z" id="path-12" class="cls-21" fill-rule="evenodd"/>
            <path d="M16.361,33.901 C16.176,33.935 15.998,33.821 15.963,33.646 C15.929,33.472 16.051,33.303 16.236,33.269 C16.421,33.236 16.600,33.350 16.634,33.524 C16.669,33.699 16.547,33.868 16.361,33.901 ZM9.378,33.957 C9.195,33.917 9.079,33.744 9.120,33.571 C9.162,33.397 9.344,33.290 9.528,33.330 C9.712,33.369 9.827,33.543 9.786,33.715 C9.745,33.889 9.562,33.997 9.378,33.957 Z" id="path-13" class="cls-22" fill-rule="evenodd"/>
            <path d="M16.740,34.589 C16.732,34.613 16.654,34.800 16.390,34.807 C16.343,34.809 16.300,34.807 16.259,34.799 C16.259,34.799 16.259,34.799 16.257,34.799 C16.257,34.799 16.255,34.798 16.254,34.798 C16.238,34.797 16.223,34.795 16.208,34.792 C16.205,34.790 16.200,34.790 16.195,34.790 C16.180,34.786 16.165,34.781 16.150,34.778 C16.146,34.777 16.145,34.777 16.143,34.774 C15.721,34.650 15.596,34.185 15.596,34.185 C15.612,34.205 15.629,34.221 15.645,34.240 C16.059,34.699 16.742,34.585 16.742,34.585 C16.742,34.585 16.741,34.588 16.740,34.589 ZM9.033,34.801 C8.988,34.786 8.950,34.765 8.915,34.744 C8.901,34.736 8.887,34.727 8.873,34.718 C8.869,34.716 8.863,34.713 8.860,34.709 C8.839,34.695 8.820,34.679 8.802,34.661 C8.799,34.661 8.796,34.659 8.794,34.655 C8.793,34.653 8.790,34.651 8.789,34.649 C8.777,34.641 8.767,34.629 8.757,34.616 C8.495,34.339 8.566,33.929 8.566,33.929 C8.571,33.953 8.579,33.975 8.586,33.998 C8.773,34.576 9.448,34.732 9.448,34.732 C9.448,34.732 9.446,34.732 9.446,34.734 C9.435,34.744 9.285,34.899 9.033,34.801 Z" id="path-14" class="cls-23" fill-rule="evenodd"/>
          </g>
        </g>
      </g>
    </g>
    <path d="M98.043,4.772 C98.043,4.772 98.043,7.593 98.043,7.593 C98.043,7.593 96.314,7.593 96.314,7.593 C96.314,7.593 96.314,4.811 96.314,4.811 C96.314,4.811 93.571,0.313 93.571,0.313 C93.571,0.313 95.313,0.013 95.313,0.013 C95.313,0.013 97.224,3.277 97.224,3.277 C97.224,3.277 99.044,0.130 99.044,0.130 C99.044,0.130 100.864,0.130 100.864,0.130 C100.864,0.130 98.043,4.772 98.043,4.772 ZM89.710,7.593 C89.710,7.593 86.941,7.593 86.941,7.593 C86.941,7.593 86.941,0.130 86.941,0.130 C86.941,0.130 89.762,0.130 89.762,0.130 C91.504,0.130 92.453,0.833 92.453,2.055 C92.453,2.887 91.985,3.381 91.335,3.667 C92.206,3.927 92.791,4.460 92.791,5.422 C92.791,6.930 91.556,7.593 89.710,7.593 ZM89.645,1.379 C89.645,1.379 88.553,1.379 88.553,1.379 C88.553,1.379 88.553,3.173 88.553,3.173 C88.553,3.173 89.606,3.173 89.606,3.173 C90.451,3.173 90.906,2.848 90.906,2.237 C90.906,1.678 90.490,1.379 89.645,1.379 ZM89.710,4.304 C89.710,4.304 88.553,4.304 88.553,4.304 C88.553,4.304 88.553,6.358 88.553,6.358 C88.553,6.358 89.710,6.358 89.710,6.358 C90.607,6.358 91.166,6.059 91.166,5.357 C91.166,4.681 90.672,4.304 89.710,4.304 ZM77.763,7.593 C77.763,7.593 75.228,7.593 75.228,7.593 C75.228,7.593 75.228,0.130 75.228,0.130 C75.228,0.130 77.750,0.130 77.750,0.130 C80.506,0.130 81.962,1.665 81.962,3.849 C81.962,6.007 80.441,7.593 77.763,7.593 ZM80.233,3.875 C80.233,2.367 79.284,1.522 77.776,1.522 C77.776,1.522 76.905,1.522 76.905,1.522 C76.905,1.522 76.905,6.202 76.905,6.202 C76.905,6.202 77.763,6.202 77.763,6.202 C79.297,6.202 80.233,5.383 80.233,3.875 ZM68.390,0.130 C68.390,0.130 73.395,0.130 73.395,0.130 C73.395,0.130 73.395,1.496 73.395,1.496 C73.395,1.496 70.054,1.496 70.054,1.496 C70.054,1.496 70.054,3.082 70.054,3.082 C70.054,3.082 72.667,3.082 72.667,3.082 C72.667,3.082 72.888,4.421 72.888,4.421 C72.888,4.421 70.054,4.421 70.054,4.421 C70.054,4.421 70.054,6.228 70.054,6.228 C70.054,6.228 73.499,6.228 73.499,6.228 C73.499,6.228 73.499,7.593 73.499,7.593 C73.499,7.593 68.390,7.593 68.390,7.593 C68.390,7.593 68.390,0.130 68.390,0.130 ZM64.568,7.593 C64.568,7.593 62.865,7.593 62.865,7.593 C62.865,7.593 62.865,1.587 62.865,1.587 C62.865,1.587 60.512,1.587 60.512,1.587 C60.512,1.587 60.512,0.130 60.512,0.130 C60.512,0.130 66.856,0.130 66.856,0.130 C66.856,0.130 67.064,1.587 67.064,1.587 C67.064,1.587 64.568,1.587 64.568,1.587 C64.568,1.587 64.568,7.593 64.568,7.593 ZM58.042,7.684 C58.042,7.684 56.118,5.019 56.118,5.019 C56.118,5.019 55.312,5.019 55.312,5.019 C55.312,5.019 55.312,7.593 55.312,7.593 C55.312,7.593 53.661,7.593 53.661,7.593 C53.661,7.593 53.661,0.130 53.661,0.130 C53.661,0.130 56.313,0.130 56.313,0.130 C58.250,0.130 59.329,1.028 59.329,2.510 C59.329,3.576 58.718,4.291 57.795,4.629 C57.795,4.629 59.836,7.359 59.836,7.359 C59.836,7.359 58.042,7.684 58.042,7.684 ZM56.222,1.470 C56.222,1.470 55.312,1.470 55.312,1.470 C55.312,1.470 55.312,3.732 55.312,3.732 C55.312,3.732 56.209,3.732 56.209,3.732 C57.158,3.732 57.678,3.316 57.678,2.562 C57.678,1.860 57.184,1.470 56.222,1.470 ZM48.227,7.736 C46.173,7.736 44.509,6.254 44.509,3.875 C44.509,1.483 46.186,-0.013 48.240,-0.013 C50.294,-0.013 51.958,1.470 51.958,3.849 C51.958,6.228 50.294,7.736 48.227,7.736 ZM48.240,1.366 C46.940,1.366 46.199,2.432 46.199,3.862 C46.199,5.253 46.979,6.371 48.240,6.371 C49.527,6.371 50.255,5.279 50.255,3.875 C50.255,2.471 49.488,1.366 48.240,1.366 ZM40.310,5.084 C40.310,5.084 39.504,5.084 39.504,5.084 C39.504,5.084 39.504,7.593 39.504,7.593 C39.504,7.593 37.827,7.593 37.827,7.593 C37.827,7.593 37.827,0.130 37.827,0.130 C37.827,0.130 40.440,0.130 40.440,0.130 C42.299,0.130 43.443,1.028 43.443,2.562 C43.443,4.174 42.234,5.084 40.310,5.084 ZM40.323,1.444 C40.323,1.444 39.491,1.444 39.491,1.444 C39.491,1.444 39.491,3.784 39.491,3.784 C39.491,3.784 40.310,3.784 40.310,3.784 C41.311,3.784 41.831,3.381 41.831,2.614 C41.831,1.886 41.324,1.444 40.323,1.444 ZM33.225,5.084 C33.225,5.084 32.419,5.084 32.419,5.084 C32.419,5.084 32.419,7.593 32.419,7.593 C32.419,7.593 30.742,7.593 30.742,7.593 C30.742,7.593 30.742,0.130 30.742,0.130 C30.742,0.130 33.355,0.130 33.355,0.130 C35.214,0.130 36.358,1.028 36.358,2.562 C36.358,4.174 35.149,5.084 33.225,5.084 ZM33.238,1.444 C33.238,1.444 32.406,1.444 32.406,1.444 C32.406,1.444 32.406,3.784 32.406,3.784 C32.406,3.784 33.225,3.784 33.225,3.784 C34.226,3.784 34.746,3.381 34.746,2.614 C34.746,1.886 34.239,1.444 33.238,1.444 ZM25.425,7.736 C23.423,7.736 22.214,6.657 22.214,4.681 C22.214,4.681 22.214,0.130 22.214,0.130 C22.214,0.130 23.878,0.130 23.878,0.130 C23.878,0.130 23.878,4.655 23.878,4.655 C23.878,5.682 24.359,6.332 25.438,6.332 C26.491,6.332 27.011,5.734 27.011,4.681 C27.011,4.681 27.011,0.130 27.011,0.130 C27.011,0.130 28.688,0.130 28.688,0.130 C28.688,0.130 28.688,4.642 28.688,4.642 C28.688,6.670 27.440,7.736 25.425,7.736 ZM20.628,5.435 C20.628,6.787 19.471,7.697 17.703,7.697 C16.663,7.697 15.701,7.450 14.895,7.112 C14.895,7.112 15.142,5.695 15.142,5.695 C15.935,6.085 16.975,6.384 17.742,6.384 C18.600,6.384 19.068,6.033 19.068,5.539 C19.068,5.058 18.730,4.850 17.729,4.525 C15.987,3.966 15.155,3.498 15.155,2.198 C15.155,0.911 16.273,0.026 17.885,0.026 C18.847,0.026 19.627,0.221 20.238,0.482 C20.238,0.482 19.991,1.899 19.991,1.899 C19.315,1.574 18.548,1.353 17.846,1.353 C17.092,1.353 16.702,1.665 16.702,2.068 C16.702,2.549 17.040,2.731 18.106,3.082 C19.952,3.680 20.628,4.174 20.628,5.435 Z" id="path-15" class="cls-24" fill-rule="evenodd"/>
  </g>
</svg>
