<?xml version="1.0" encoding="UTF-8"?>
<svg width="730px" height="240px" viewBox="0 0 730 240" version="1.1" xmlns="http://www.w3.org/2000/svg" xmlns:xlink="http://www.w3.org/1999/xlink">
    <!-- Generator: Sketch 46.2 (44496) - http://www.bohemiancoding.com/sketch -->
    <title>Combined Shape</title>
    <desc>Created with Sketch.</desc>
    <defs></defs>
    <g id="Page-1" stroke="none" stroke-width="1" fill="none" fill-rule="evenodd">
        <path d="M669.033243,157.677568 L703.234054,157.677568 L703.234054,105.236757 L669.033243,105.236757 L669.033243,157.677568 Z M703.069459,84.6616216 L729.267568,84.6672973 L729.267568,182.147027 C729.267568,198.311351 727.565676,201.049459 723.312162,205.473243 C719.909189,209.046486 714.464595,210.748378 704.935946,210.748378 L666.544865,210.668108 L654.711892,197.551622 L654.675405,192.034865 L703.069459,192.034865 L703.022432,178.690541 L670.013514,178.669459 C659.974054,178.669459 654.912162,176.795676 650.657838,172.711622 C645.213243,167.096757 643.001351,154.808108 643.001351,131.837838 C643.001351,108.697297 645.724054,96.0672973 651.338108,90.282973 C655.591622,86.1989189 661.037027,84.4978378 670.395405,84.4978378 L689.951351,84.6616216 L703.069459,96.4962162 L703.069459,84.6616216 Z M597.189081,114.284027 L597.196378,114.284027 L597.196378,105.597 L587.750432,105.597 C587.615027,105.596189 587.477189,105.596189 587.336919,105.596189 L580.020162,105.596189 C579.923676,105.596189 579.828,105.596189 579.732324,105.597 L565.211514,105.597 L565.211514,114.284027 L565.216378,114.284027 L565.216378,178.250514 L539.184486,178.250514 L539.184486,84.6675405 L556.327459,84.6675405 L556.327459,84.6618649 L565.11827,84.6618649 L565.11827,86.3459189 L565.11827,96.4964595 L578.235568,84.6618649 L585.846649,84.6618649 C587.045838,84.5418649 588.318,84.4980811 589.71827,84.4980811 L601.119081,84.4980811 C609.116108,84.4980811 614.220162,86.1983514 617.793405,89.7724054 C621.706378,93.5159189 623.238,98.4497027 623.238,112.231865 L623.238,178.250514 L597.205297,178.250514 L597.205297,115.294297 C597.205297,114.944027 597.199622,114.607541 597.189081,114.284027 Z M460.958595,178.250108 C451.429946,178.250108 446.495351,176.718486 442.412108,172.464973 C436.286432,166.340108 433.90427,157.831459 433.90427,131.459027 C433.90427,104.915514 436.286432,96.5779459 442.412108,90.2828108 C446.325081,86.1987568 451.429946,84.6671351 460.958595,84.6671351 L492.776432,84.6671351 C502.30427,84.6671351 507.238865,86.1987568 511.322108,90.2828108 C517.447784,96.5779459 519.829946,104.915514 519.829946,131.459027 C519.829946,158.00173 517.447784,166.340108 511.322108,172.464973 C507.238865,176.718486 502.30427,178.250108 492.776432,178.250108 L460.958595,178.250108 Z M459.766703,157.643351 L493.967514,157.643351 L493.967514,105.236595 L459.766703,105.236595 L459.766703,157.643351 Z M393.216324,58.7925405 L424.195784,58.7925405 L379.694432,115.103351 L426.078486,178.602811 L393.216324,178.602811 L357.937946,128.709568 L349.571189,128.670649 L349.571189,178.602811 L321.672811,178.602811 L321.672811,58.7925405 L349.571189,58.7925405 L349.571189,105.234973 L357.926595,105.234973 L393.216324,58.7925405 Z M87.6887027,197.264919 L136.415189,197.264919 L161.714919,228.76573 L157.364919,239.497622 L94.4135676,239.497622 L95.9573514,228.76573 L81.1170811,205.583027 L87.6887027,197.264919 Z M122.112243,56.1833514 L148.560892,56.1436216 L267.416027,196.749568 L258.180892,239.497135 L207.240892,239.497135 L210.411973,227.45173 L99.3495405,96.0330811 L122.112243,56.1833514 Z M169.298757,0 L224.300919,43.5251351 L217.261459,50.8410811 L226.797405,64.2121622 L226.797405,78.5116216 L199.375784,101.016486 L153.260919,46.1627027 L126.412541,46.1627027 L137.223081,26.2135135 L169.298757,0 Z M54.5545946,137.269459 L93.2310811,104.114595 L144.566757,165.043784 L129.990811,187.364595 L82.6564865,187.364595 L49.9094595,229.748919 L42.4305405,239.497297 L0,239.497297 L0,187.493514 L39.5489189,137.269459 L54.5545946,137.269459 Z" id="Combined-Shape" fill="#003459"></path>
    </g>
</svg>