<?xml version="1.0" encoding="UTF-8" standalone="no"?>
<svg id="svg4899" xmlns:rdf="http://www.w3.org/1999/02/22-rdf-syntax-ns#" xmlns="http://www.w3.org/2000/svg" viewBox="0 0 121.89107 116.28102" height="32.817mm" width="34.4mm" version="1.1" xmlns:cc="http://creativecommons.org/ns#" xmlns:xlink="http://www.w3.org/1999/xlink" xmlns:dc="http://purl.org/dc/elements/1.1/">
 <defs id="defs4901">
  <radialGradient id="radialGradient4909" gradientUnits="userSpaceOnUse" cx="256.24" cy="575.08" r="55.036" gradientTransform="matrix(1 0 0 .55738 0 254.54)">
   <stop id="stop4354" stop-color="#275a94" offset="0"/>
   <stop id="stop4356" stop-color="#2f6db3" offset=".625"/>
   <stop id="stop4358" stop-color="#2f6db3" stop-opacity="0" offset="1"/>
  </radialGradient>
  <radialGradient id="radialGradient4911" gradientUnits="userSpaceOnUse" xlink:href="#linearGradient4271" cx="256.24" cy="575.08" r="55.036" gradientTransform="matrix(1 0 0 .55738 0 254.54)"/>
  <linearGradient id="linearGradient4271">
   <stop id="stop4273" stop-color="#275a94" offset="0"/>
   <stop id="stop4277" stop-color="#2f6db3" offset=".8125"/>
   <stop id="stop4275" stop-color="#2f6db3" stop-opacity="0" offset="1"/>
  </linearGradient>
  <radialGradient id="radialGradient4913" gradientUnits="userSpaceOnUse" xlink:href="#linearGradient4010-6-5" cx="348.65" cy="415.11" r="20.254" gradientTransform="matrix(1.5753 .000059876 -.000061338 1.6138 -200.56 -254.81)"/>
  <linearGradient id="linearGradient4010-6-5">
   <stop id="stop4012-6-8" stop-color="#92e6ff" offset="0"/>
   <stop id="stop4014-6-5" stop-color="#0a12ad" offset="1"/>
  </linearGradient>
  <radialGradient id="radialGradient4915" cx="272.85" gradientUnits="userSpaceOnUse" cy="488.88" r="69.839">
   <stop id="stop4156" stop-color="#fff" offset="0"/>
   <stop id="stop4158" stop-color="#fff" stop-opacity="0" offset="1"/>
  </radialGradient>
  <radialGradient id="radialGradient4917" gradientUnits="userSpaceOnUse" cx="304.81" cy="455.11" r="70.139" gradientTransform="matrix(1.4856 -.024468 .026525 1.6105 -160.09 -270.4)">
   <stop id="stop4036" stop-color="#90cdfd" offset="0"/>
   <stop id="stop4038" stop-color="#0a12ad" offset="1"/>
  </radialGradient>
  <radialGradient id="radialGradient4919" cx="340.95" xlink:href="#linearGradient4271" gradientUnits="userSpaceOnUse" cy="422.51" r="19.954"/>
 </defs>
 <g id="layer1" transform="translate(-290.48 -459.94)">
  <g id="g5221" transform="translate(241.43 94.393)">
   <g>
    <ellipse id="path4877" opacity=".62232" rx="55.036" transform="matrix(.16287 0 0 .22521 79.509 316.98)" ry="30.676" cy="575.08" cx="256.24" fill="url(#radialGradient4909)"/>
    <ellipse id="path4879" opacity=".62232" rx="55.036" transform="matrix(.72460 0 0 1.0019 -96.514 -145.38)" ry="30.676" cy="575.08" cx="256.24" fill="url(#radialGradient4911)"/>
    <circle id="path4881" cx="340.95" transform="matrix(.48020 0 0 .48020 -36.966 240.43)" cy="422.51" r="19.954" fill="url(#radialGradient4913)"/>
   </g>
   <path id="path4883" fill-opacity=".76471" fill="#aadcfa" d="m160.33 406.75 0.00002 50.89-41.266-41.132-0.00001-50.962z"/>
   <path id="path4885" fill-opacity=".76549" fill="#8ed0f8" d="m119.06 365.54-70.006 24.187 0.00001 50.89 70.006-24.114z"/>
   <g>
    <circle id="path4889" cx="272.85" transform="matrix(.66431 0 0 .66431 -76.75 93.507)" cy="488.88" r="69.839" fill="url(#radialGradient4915)"/>
    <circle id="path4891" cx="272.85" transform="matrix(.47127 0 0 .47127 -24.079 187.88)" cy="488.88" r="69.839" fill="url(#radialGradient4917)"/>
    <circle id="path4893" opacity=".45494" cx="340.95" transform="matrix(.44407 0 .061848 .44407 -59.818 215.26)" cy="422.51" r="19.954" fill="url(#radialGradient4919)"/>
   </g>
   <g fill="url(#radialGradient4913)">
    <circle id="path4895" cx="340.95" transform="matrix(.48020 0 0 .48020 -25.999 181.46)" cy="422.51" r="19.954"/>
    <circle id="path4897" cx="340.95" transform="matrix(.44580 0 0 .44580 -90.974 214.96)" cy="422.51" r="19.954"/>
    <circle id="path4899" cx="340.95" transform="matrix(.26524 0 0 .26524 75.219 283.7)" cy="422.51" r="19.954"/>
    <circle id="path4901" cx="340.95" transform="matrix(.36842 0 0 .36842 -24.583 266.77)" cy="422.51" r="19.954"/>
   </g>
   <path id="path4903" fill-opacity=".76471" fill="#9dd7f9" d="m160.33 457.64-0.00001-50.89-70.078 24.259 0.00002 50.818z"/>
   <path id="path4905" fill-opacity=".76471" fill="#80caf7" d="m49.054 389.73 41.194 41.276 0.00001 50.818-41.194-41.204z"/>
  </g>
 </g>
</svg>
